{
    "asset" : {
        "generator" : "Khronos glTF Blender I/O v1.1.46",
        "version" : "2.0"
    },
    "scene" : 0,
    "scenes" : [
        {
            "name" : "Scene",
            "nodes" : [
                0,
                1,
                2,
                3
            ]
        }
    ],
    "nodes" : [
        {
            "name" : "Light",
            "rotation" : [
                0.16907575726509094,
                0.7558803558349609,
                -0.27217137813568115,
                0.570947527885437
            ],
            "translation" : [
                4.076245307922363,
                5.903861999511719,
                -1.0054539442062378
            ]
        },
        {
            "name" : "Camera",
            "rotation" : [
                0.483536034822464,
                0.33687159419059753,
                -0.20870360732078552,
                0.7804827094078064
            ],
            "translation" : [
                7.358891487121582,
                4.958309173583984,
                6.925790786743164
            ]
        },
        {
            "mesh" : 0,
            "name" : "Sphere"
        },
        {
            "mesh" : 1,
            "name" : "Sphere.001",
            "scale" : [
                0.24097973108291626,
                0.24097973108291626,
                0.24097973108291626
            ],
            "translation" : [
                0,
                0.3238949179649353,
                1.0259292125701904
            ]
        }
    ],
    "meshes" : [
        {
            "name" : "Sphere",
            "primitives" : [
                {
                    "attributes" : {
                        "POSITION" : 0,
                        "NORMAL" : 1,
                        "TEXCOORD_0" : 2,
                        "COLOR_0" : 3
                    },
                    "indices" : 4
                }
            ]
        },
        {
            "name" : "Sphere.001",
            "primitives" : [
                {
                    "attributes" : {
                        "POSITION" : 5,
                        "NORMAL" : 6,
                        "TEXCOORD_0" : 7,
                        "COLOR_0" : 8
                    },
                    "indices" : 9
                }
            ]
        }
    ],
    "accessors" : [
        {
            "bufferView" : 0,
            "componentType" : 5126,
            "count" : 2155,
            "max" : [
                1.3100988864898682,
                1.587241291999817,
                1.1627883911132812
            ],
            "min" : [
                -1.3100961446762085,
                -0.9866744875907898,
                -1.3262087106704712
            ],
            "type" : "VEC3"
        },
        {
            "bufferView" : 1,
            "componentType" : 5126,
            "count" : 2155,
            "type" : "VEC3"
        },
        {
            "bufferView" : 2,
            "componentType" : 5126,
            "count" : 2155,
            "type" : "VEC2"
        },
        {
            "bufferView" : 3,
            "componentType" : 5126,
            "count" : 2155,
            "type" : "VEC4"
        },
        {
            "bufferView" : 4,
            "componentType" : 5123,
            "count" : 2880,
            "type" : "SCALAR"
        },
        {
            "bufferView" : 5,
            "componentType" : 5126,
            "count" : 1984,
            "max" : [
                1.000000238418579,
                1,
                1.0000003576278687
            ],
            "min" : [
                -0.9999998211860657,
                -1,
                -1
            ],
            "type" : "VEC3"
        },
        {
            "bufferView" : 6,
            "componentType" : 5126,
            "count" : 1984,
            "type" : "VEC3"
        },
        {
            "bufferView" : 7,
            "componentType" : 5126,
            "count" : 1984,
            "type" : "VEC2"
        },
        {
            "bufferView" : 8,
            "componentType" : 5126,
            "count" : 1984,
            "type" : "VEC4"
        },
        {
            "bufferView" : 9,
            "componentType" : 5123,
            "count" : 2880,
            "type" : "SCALAR"
        }
    ],
    "bufferViews" : [
        {
            "buffer" : 0,
            "byteLength" : 25860,
            "byteOffset" : 0
        },
        {
            "buffer" : 0,
            "byteLength" : 25860,
            "byteOffset" : 25860
        },
        {
            "buffer" : 0,
            "byteLength" : 17240,
            "byteOffset" : 51720
        },
        {
            "buffer" : 0,
            "byteLength" : 34480,
            "byteOffset" : 68960
        },
        {
            "buffer" : 0,
            "byteLength" : 5760,
            "byteOffset" : 103440
        },
        {
            "buffer" : 0,
            "byteLength" : 23808,
            "byteOffset" : 109200
        },
        {
            "buffer" : 0,
            "byteLength" : 23808,
            "byteOffset" : 133008
        },
        {
            "buffer" : 0,
            "byteLength" : 15872,
            "byteOffset" : 156816
        },
        {
            "buffer" : 0,
            "byteLength" : 31744,
            "byteOffset" : 172688
        },
        {
            "buffer" : 0,
            "byteLength" : 5760,
            "byteOffset" : 204432
        }
    ],
    "buffers" : [
        {
            "byteLength" : 210192,
            "uri" : "data:application/octet-stream;base64,"
        }
    ]
}
